<svg xmlns="http://www.w3.org/2000/svg" viewBox="0 0 408.18 99.57"><g id="Camada_2" data-name="Camada 2"><g id="Camada_1-2" data-name="Camada 1"><path d="M140.2,34c3.31,0,6.63.05,9.94,0a1.34,1.34,0,0,1,1.45.92c.5,1.12,1.1,2.21,1.75,3.49,1.23-1.75,2.43-3.37,3.53-5a2,2,0,0,1,1.94-1c9,.2,18,.33,26.95.52.83,0,1.38-.15,1.6-1,.16-.64.56-.84,1.23-.8q11.72.72,23.43,1.4c4.67.27,9.33.62,14,.79,1.9.07,3.36.47,4.22,2.34.56,1.22,1.59,2.18,2.15,3.43-8.83,4.57-18.41,7-28.19,9.39a27.39,27.39,0,0,0,5.61,2.79c4.88,2.16,9.9,3.95,15,5.66.69.43,1.58.43,2.28,1-1.85,2.13-3.68,4.18-5.44,6.29a1.68,1.68,0,0,1-1.95.65A123.54,123.54,0,0,1,205,60.18c-5.82-2.22-11.54-4.68-17.11-7.46-.82-.42-1.11-.28-1.47.53-1.94,4.33-3.93,8.63-5.92,12.94-.94,2-1.89,4.09-2.9,6.27l-4.94-6.66c-.36-.5,0-.9.19-1.32Q177.92,53,183,41.57c.16-.36.3-.73.44-1.1l1.79-3.83c-4.25,0-8.28,0-12.31,0a2.92,2.92,0,0,0-2.37.85,2.66,2.66,0,0,1-2.15.8c-1.84,0-3.68,0-5.51.07s-2.06.32-2.58,2.18h18c-1,1.38-1.85,2.59-2.67,3.85a1.93,1.93,0,0,1-1.62,1c-5.37.46-10.73,1-16.1,1.49-.35,0-.76-.06-1,.31-1,1.67-2,3.35-3.17,5.28l3.73-.71c4.38-.69,8.75-1.39,13.13-2.05A39.66,39.66,0,0,1,175.9,49c-.73,1.81-1.46,3.62-2.17,5.44a1.25,1.25,0,0,1-1,.92q-13.14,3-26.27,6a1.56,1.56,0,0,1-1.52-.4c-1.47-1.29-3-2.52-4.48-3.78-.16-.46.19-.73.41-1,1.1-1.59,2.23-3.16,3.32-4.75.2-.29.64-.52.38-1h0c.27.11.32,0,.25-.24h0c.25.09.27,0,.25-.25h0c.23,0,.27-.11.26-.3a2.91,2.91,0,0,0,.52-.47c2.09-3,4.18-6,6.26-9,0-.09.07-.18.1-.26l-.24.11c-.33.22-.67.43-1,.67L136,52,115.29,67.87c-.37.29-.67.8-1.31.29-3-2.41-6.09-4.78-9.15-7.15-.36-.29-.52-.51-.16-1q5.64-6.9,11.22-13.83L124.18,36q8.55-10.47,17.11-20.94c.71-.87,1.17-2.16,2.72-2,.24,0,.54-.43.81-.66s.51-.59.73-.56c1.27.14,1.71-.85,2.32-1.58,2.45-2.95,4.88-5.91,7.33-8.86.34-.41.59-.95,1.14-1.16A5,5,0,0,1,155,2.92a14.46,14.46,0,0,0-3,10.27,2.12,2.12,0,0,1-.6,1.62q-7.29,9-14.55,18.11a1.92,1.92,0,0,0-.64,1ZM128.5,48.12c.15,0,.26-.07.26-.24h0a60.51,60.51,0,0,0,6.07-4.24L140.14,40c-2.94-.23-5.76-.22-8.59-.23a1.16,1.16,0,0,0-1,.51c-3.93,4.83-7.87,9.66-11.89,14.61.29,0,.47,0,.58-.08l8.66-6.19a1.06,1.06,0,0,0,.62-.48ZM192,43.77a2.41,2.41,0,0,0,1.79.48l9.88-3.07L216.2,37.5c-6.75-.24-13.44-.24-20.14-.23-1.27,0-2.78-.37-3.76.17s-1.14,2.26-1.66,3.46C189.73,43,189.75,43.05,192,43.77Z"/><path d="M0,50.28c1.22-1.17,2.49-2.19,4.37-1.93a6.54,6.54,0,0,0,3.78-.78Q45.53,30,82.94,12.52c1.93-.9,4.23-1,6.2-2,.32-.16.62,0,.9.2l8,4.79c.09.05.14.18.2.27-2.7,1.37-5.47,2.61-8.09,4.13a6.76,6.76,0,0,1-5.88.74,3.3,3.3,0,0,0-2.82.41Q60.61,32.45,39.72,43.76a2.21,2.21,0,0,0-1.12.86l8.52-.4,15.78-.49,12.67-.44c2.55-.08,5.12,0,7.4-1.43a.87.87,0,0,1,1.18.12c2.88,2.46,5.78,4.9,8.67,7.34.18.16.35.33.28.61-1.23,1.47-2.47,2.93-3.69,4.4-.3.35-.58.75-1,.25-.76-.82-1.71-.68-2.67-.63l-30.37,1.6q-10.51.54-21,1.11c-3.92.22-7.83.62-11.75.75-2.26.08-4.53,0-6.79.22a3.33,3.33,0,0,1-1.83-.4Q7,53.74,0,50.28Z"/><path d="M305.75,34.79l.55,1.29c-.17.27-.34.54-.5.82q-8,14.3-16,28.63c-.54,1-.89,1-1.74.4a30.75,30.75,0,0,0-4.59-2.74h0a2.39,2.39,0,0,1,.31-1.25c.52-1.5,1.06-3,1.59-4.49,0,0,.05,0,.06-.06s0,0,0-.06l0,.14c-.53-.16-.78.29-1.11.53-3.7,2.63-7.41,5.26-11.07,7.94a1.23,1.23,0,0,1-1.82,0,25,25,0,0,0-4.24-3.21h0c.06-.17-.06-.22-.17-.28.57-2.19,1.6-4.2,2.38-6.31s1.52-3.9,2.28-5.85a37.27,37.27,0,0,0,1.77-4.53l.12-.15h-.27c-.23,0-.47.08-.7.15Q256.73,51,240.89,56.31a2.19,2.19,0,0,0-1.29,1.29c-3.3,6.59-6.72,13.13-9.86,19.79-1.41,3-3.18,5.45-6.21,6.89A15.78,15.78,0,0,0,215,94.11c-.83,2.63-2.83,4.14-5,5.46q4.8-10,9.59-20,3.88-8.08,7.76-16.16c.17-.34.47-.66.34-1.11l0,0c.22,0,.25-.16.3-.3.43-.85.85-1.7,1.3-2.54a.85.85,0,0,0-.19-1.22c-1.53-1.33-3-2.71-4.5-4.07.28-.51.85-.53,1.31-.7,2.2-.84,4.4-1.66,6.63-2.43a2.25,2.25,0,0,0,1.41-1.3c2.5-5.26,5-10.49,7.54-15.75a1.43,1.43,0,0,1,1.42-1q15.24-.91,30.48-1.91,8.91-.57,17.81-1.14c.4,0,.89-.27,1.2.24-.54,2.88-1.1,5.77-1.59,8.66a1.34,1.34,0,0,1-1.06,1.23c-3,1-6,2-9.06,3-.59.19-1,.37-.9,1.13a11.47,11.47,0,0,1-1.69,7.5c-.81,1.46-1.45,3-2.15,4.53-.14.31-.42.6-.28,1l-.08.08.07-.1a21.15,21.15,0,0,0,3.61-2.06l11.61-6.63a2.82,2.82,0,0,0,.87-1.12L303.45,28c.33-.55.62-1.11,1.34-1.25.4-.08.49-.49.7-.77.44-.6.56-1.4,1.23-1.84a22.7,22.7,0,0,1-1.66,6A4.06,4.06,0,0,0,305.75,34.79Zm-58,12.14h0a1.79,1.79,0,0,0,.46,0l14.53-4.74,14.75-4.67c-4,0-7.93.28-11.87.54l-16,1c-.44,0-1-.07-1.26.48-1.39,2.84-2.79,5.68-4.32,8.77l3.5-1.22C247.64,47.11,247.78,47.12,247.73,46.93Z"/><path d="M350.14,38.79c.65.07,1.1-.39,1.62-.65L392.08,18c.3-.15.59-.43,1-.29-.69,1.55-1.28,3.1-3,3.94a5.17,5.17,0,0,0-2.72,3.49,1.76,1.76,0,0,1-1.1,1.26c-3.72,1.83-7.43,3.69-11.15,5.53-.42.21-.92.34-1,.93-.06.75-.62,1-1.2,1.36l-11.56,6.3-7.91,4.34,3.94,2.3c1.69,1.05,3.35,2.15,5.08,3.15.8.46,1.15.92.64,1.78s-.23,1.21.54,1.6c1.2.63,2.37,1.32,2.62,2.87.08.53.64.68,1.05.92,11.88,6.8,23.73,13.65,35.66,20.38a9.67,9.67,0,0,1,5.2,8.53c-.29-.12-.59-.23-.87-.38L382.18,72.58,364,62.86q-4.49-2.4-9-4.78c-1.06-.56-2.16-1.06-2.52-2.37-.13-.47-.62-.59-1-.79-2.87-1.47-5.78-2.9-8.62-4.45-.92-.5-1.23-.27-1.68.56-2.51,4.63-5.09,9.21-7.61,13.84-.4.74-.67.76-1.28.22-1.69-1.52-3.44-3-5.16-4.46a4,4,0,0,1,.9-2.16c1.74-2.62,2-5.81,3.42-8.55,3.51-6.7,6.87-13.47,10.29-20.21.12-.25.26-.48.39-.72.12.05.23.06.25.1.6,1.72.6,1.73,2.47,1.52s3.56-.43,5.34-.61c.45-.05.94-.27,1.38.09l-6,10.9.19.19,4.07-2.1c.15,0,.32-.08.31-.29Z"/><path d="M99.74,42.32c3.56-2.93,7.15-5.83,10.69-8.79a3.72,3.72,0,0,1,2.67-1c2.83.07,5.65,0,8.48,0,.38,0,.8-.13,1.15.15-3.72,4.58-7.46,9.15-11.17,13.75q-13,16.2-26,32.43a1.37,1.37,0,0,1-1.51.65,4.26,4.26,0,0,0-4,1.12,25.08,25.08,0,0,1-2.13,1.54,1.39,1.39,0,0,1-1,.42c-1.88-.19-3,.83-4.17,2.2-1.7,2.06-3.57,4-5.38,6-.23.26-.4.61-.79.68-.24-.55.28-.76.52-1.06q14.81-19,29.65-38c.17-.22.32-.45.48-.67a42.61,42.61,0,0,0,3.67-4.8c.1,0,.26,0,.1-.2l-.13.17A19.44,19.44,0,0,0,97.47,49,1,1,0,0,1,96,48.86c-1.24-1.17-2.54-2.28-3.82-3.41l-.84-9.36a1.56,1.56,0,0,1,.31-1,9.38,9.38,0,0,1,6.64-4c.27,0,.57-.08.68.3-.22,3.94-.43,7.89-.65,12A4.3,4.3,0,0,0,99.74,42.32Z"/><path d="M307.68,38.12q2-3.67,4.09-7.35a6.32,6.32,0,0,1,.07,3.08c-.31.84.07,1.14.82,1.07,1.15-.1,1.46.55,1.69,1.51,1.1,4.53,2.25,9,3.39,13.57.07.31.18.6.33,1.12,1.59-2.79,3.09-5.4,4.59-8l4.8-8.42c.22-.37.38-.8.93-.81,2.59-.07,5.15-.5,7.75-.41q-7.39,13.86-14.77,27.75a1.76,1.76,0,0,1-1.67,1c-1.55.06-3.1.23-4.65.35-.78-2.74-1.55-5.48-2.33-8.22-.12-.41-.26-.82-.4-1.23-.3-1.19-.6-2.38-1-3.87-2.21,3.85-4.25,7.36-6.25,10.9a1.62,1.62,0,0,1-1.47,1c-2.5.18-5,.41-7.51.68-1.06.11-1-.23-.61-1q2.33-4.22,4.58-8.47Q303.89,45.24,307.68,38.12Z"/><path d="M259.43,83.71c3.08,0,6.16,0,9.23,0a2.5,2.5,0,0,0,2.19-1c.3-.36.72-.64,1-1a5.16,5.16,0,0,1,5.45-2.3c.88.16,1.09-.31,1-1.1a4,4,0,0,1,1.14-3.6c2-1.8,5.88-1.32,7.25,1a4.8,4.8,0,0,1,.28,2.7c0,.79.22,1,1,1,3.6,0,7.2,0,10.79,0a1.32,1.32,0,0,0,1.26-.66,2.83,2.83,0,0,1,4.2-.6,2.9,2.9,0,0,1,.14,4.26,2.8,2.8,0,0,1-4.29-.42,1.42,1.42,0,0,0-1.37-.68c-3.55,0-7.11,0-10.67,0-.84,0-1.08.22-1.07,1.07a3.83,3.83,0,0,1-2.49,4,5.11,5.11,0,0,1-5.72-1.63,3.8,3.8,0,0,1-.45-2.53c0-.65-.19-.87-.88-.93a3.84,3.84,0,0,0-3.86,1.52c-1.64,2.39-3.9,3.07-6.79,2.86-3.66-.26-7.35-.07-11,0-.47,0-1.07-.26-1.27.52-.08.34-.46.24-.73.24-2.16,0-4.32,0-6.48,0-.69,0-.81-.24-.9-.89-.37-2.86.36-5,3.4-5.94.63-.2,1.18-.68,1.81-.91,1-.36,1-1.12.82-1.87s-.74-.94-1.46-.93a2.8,2.8,0,0,0-2.38.78c-.62.71-1.48,0-2-.26s.15-.81.41-1.14a5.36,5.36,0,0,1,5.91-1.16,3.52,3.52,0,0,1,1.83,3.59,2.93,2.93,0,0,1-1.86,2.78c-1.19.57-2.34,1.21-3.51,1.81-.43.22-.76.49-.63,1s.64.35,1,.36Zm25.3-3.49c0-1,0-1.91,0-2.87a1.34,1.34,0,0,0-1.42-1.43,9.55,9.55,0,0,0-1.31,0,1.36,1.36,0,0,0-1.41,1.45c0,1.88,0,3.75,0,5.62,0,1,.71,1.46,2.16,1.46s1.93-.39,2-1.5C284.76,82.05,284.73,81.13,284.73,80.22Zm17.72,1.91a1.69,1.69,0,0,0,1.66-1.79,1.65,1.65,0,0,0-1.68-1.63,1.67,1.67,0,0,0-1.73,1.71A1.71,1.71,0,0,0,302.45,82.13Z"/><path d="M311.73,86.32c.94-1.92,1.85-3.81,2.78-5.7.58-1.18,1.14-2.37,1.77-3.53.47-.87.19-1.08-.7-1-1.36,0-2.72,0-4.08,0-.92,0-.92-.46-.91-1.12s0-1.14.91-1.11c2.31.07,4.63,0,6.95,0,.73,0,.95.24.95,1,0,1.32-.83,2.3-1.3,3.42s-.54,1.21.76,1.21c5,0,9.91,0,14.86,0a1.64,1.64,0,0,0,1.57-.79,2.77,2.77,0,0,1,4.11-.44,2.85,2.85,0,0,1,.17,4.16,2.75,2.75,0,0,1-4.21-.2,1.91,1.91,0,0,0-1.78-.85q-8,0-15.94,0a1.28,1.28,0,0,0-1.45.9c-.33.85-.77,1.66-1.16,2.49C314.12,86.65,314.12,86.65,311.73,86.32Zm25.73-7.61a1.75,1.75,0,0,0-1.68,1.79,1.78,1.78,0,0,0,1.74,1.63,1.8,1.8,0,0,0,1.76-1.75A1.75,1.75,0,0,0,337.46,78.71Z"/><path d="M349,76.06c-1.85,0-3.52-.06-5.18,0-1,0-.94-.51-1-1.19s.17-1.06,1-1c2.28.06,4.56.05,6.83,0,.73,0,1,.18,1,.94a4.19,4.19,0,0,1-.36,1.6c-1.32,2.73-2.62,5.46-3.93,8.19-.94,2-.94,2-3.39,1.78Z"/><path d="M306.82,23.6c.14.22.25.45-.11.59Z"/><path d="M66.4,91.7l-.28.32c0-.09-.12-.22-.09-.26A.23.23,0,0,1,66.4,91.7Z"/><path d="M393.31,17.62l-.25.1C393,17.41,393.18,17.54,393.31,17.62Z"/><path d="M156.55,0c0,.13,0,.33-.22.24C156.3.07,156.41,0,156.55,0Z"/><path d="M66.64,91.46c0,.17-.07.27-.26.25C66.34,91.5,66.35,91.34,66.64,91.46Z"/></g></g></svg>